<svg width="20" height="18" viewBox="0 0 20 18" fill="none" xmlns="http://www.w3.org/2000/svg">
<path d="M8.66667 0V16.8261H11.3333V0H8.66667ZM16.6667 3.13043V16.8261H19.3333V3.13043H16.6667ZM4.66667 4.30435V16.8261H7.33333V4.30435H4.66667ZM12.6667 8.21739V16.8261H15.3333V8.21739H12.6667ZM0.666667 10.1739V16.8261H3.33333V10.1739H0.666667ZM0.345 17.2174C0.154 17.2174 0 17.386 0 17.5958V17.6216C0 17.8313 0.154 18 0.345 18H19.655C19.846 18 20 17.8313 20 17.6216V17.5958C20 17.386 19.846 17.2174 19.655 17.2174H0.345Z" fill="black"/>
</svg>
