<svg width="22" height="21" viewBox="0 0 22 21" fill="none" xmlns="http://www.w3.org/2000/svg">
<path d="M13.625 1.3125H6.62478C6.39277 1.3125 6.17027 1.40466 6.00622 1.56872C5.84216 1.73277 5.75 1.95527 5.75 2.18728V5.90625L13.625 10.5L17.5625 12.1616L21.5 10.5V5.90625L13.625 1.3125Z" fill="#21A366"/>
<path d="M5.75 5.90625H13.625V10.5H5.75V5.90625Z" fill="#107C41"/>
<path d="M20.6252 1.3125H13.625V5.90625H21.5V2.18728C21.5 1.95527 21.4078 1.73277 21.2438 1.56872C21.0797 1.40466 20.8572 1.3125 20.6252 1.3125Z" fill="#33C481"/>
<path d="M13.625 10.5H5.75V18.8127C5.75 19.0447 5.84216 19.2672 6.00622 19.4313C6.17027 19.5953 6.39277 19.6875 6.62478 19.6875H20.6252C20.8572 19.6875 21.0797 19.5953 21.2438 19.4313C21.4078 19.2672 21.5 19.0447 21.5 18.8127V15.0938L13.625 10.5Z" fill="#185C37"/>
<path d="M13.625 10.5H21.5V15.0938H13.625V10.5Z" fill="#107C41"/>
<path opacity="0.1" d="M11.4377 4.59375H5.75V17.0625H11.4377C11.6695 17.0618 11.8916 16.9694 12.0555 16.8055C12.2194 16.6416 12.3118 16.4195 12.3125 16.1877V5.46853C12.3118 5.23674 12.2194 5.01464 12.0555 4.85073C11.8916 4.68683 11.6695 4.59444 11.4377 4.59375Z" fill="black"/>
<path opacity="0.2" d="M10.7815 5.25H5.75V17.7188H10.7815C11.0133 17.7181 11.2354 17.6257 11.3993 17.4618C11.5632 17.2979 11.6556 17.0758 11.6562 16.844V6.12478C11.6556 5.89299 11.5632 5.67089 11.3993 5.50698C11.2354 5.34308 11.0133 5.25069 10.7815 5.25Z" fill="black"/>
<path opacity="0.2" d="M10.7815 5.25H5.75V16.4062H10.7815C11.0133 16.4056 11.2354 16.3132 11.3993 16.1493C11.5632 15.9854 11.6556 15.7633 11.6562 15.5315V6.12478C11.6556 5.89299 11.5632 5.67089 11.3993 5.50698C11.2354 5.34308 11.0133 5.25069 10.7815 5.25Z" fill="black"/>
<path opacity="0.2" d="M10.1252 5.25H5.75V16.4062H10.1252C10.357 16.4056 10.5791 16.3132 10.743 16.1493C10.9069 15.9854 10.9993 15.7633 11 15.5315V6.12478C10.9993 5.89299 10.9069 5.67089 10.743 5.50698C10.5791 5.34308 10.357 5.25069 10.1252 5.25Z" fill="black"/>
<path d="M1.37478 5.25H10.1252C10.3572 5.25 10.5797 5.34216 10.7438 5.50622C10.9078 5.67027 11 5.89277 11 6.12478V14.8752C11 15.1072 10.9078 15.3297 10.7438 15.4938C10.5797 15.6578 10.3572 15.75 10.1252 15.75H1.37478C1.14277 15.75 0.920271 15.6578 0.756218 15.4938C0.592164 15.3297 0.5 15.1072 0.5 14.8752L0.5 6.12478C0.5 5.89277 0.592164 5.67027 0.756218 5.50622C0.920271 5.34216 1.14277 5.25 1.37478 5.25Z" fill="#107C41"/>
<path d="M2.81836 13.7812L4.94198 10.4908L2.99686 7.21875H4.56202L5.62383 9.31022C5.72139 9.50841 5.78855 9.65628 5.8253 9.75384H5.83908C5.90908 9.59547 5.98236 9.44147 6.05892 9.29184L7.19358 7.21875H8.63011L6.63511 10.4724L8.68064 13.7812H7.15158L5.92505 11.4844C5.86726 11.3865 5.81829 11.2838 5.7787 11.1772H5.76033C5.72454 11.2814 5.67698 11.3811 5.61858 11.4745L4.35661 13.7812H2.81836Z" fill="white"/>
</svg>
