<svg width="18" height="18" viewBox="0 0 18 18" fill="none" xmlns="http://www.w3.org/2000/svg">
<path d="M9 0C6.61387 0.00266799 4.32624 0.951736 2.63899 2.63899C0.951736 4.32624 0.00266799 6.61387 0 9C0.00399794 11.3857 0.953493 13.6726 2.64046 15.3595C4.32742 17.0465 6.61428 17.996 9 18C11.3869 18 13.6761 17.0518 15.364 15.364C17.0518 13.6761 18 11.3869 18 9C18 6.61305 17.0518 4.32387 15.364 2.63604C13.6761 0.948212 11.3869 0 9 0ZM14.4742 14.1934C13.9687 13.1738 13.1884 12.3159 12.2213 11.7162C11.2541 11.1166 10.1387 10.7992 9.00073 10.7998C7.8628 10.8004 6.74767 11.119 5.78117 11.7196C4.81467 12.3203 4.03526 13.1791 3.53088 14.1991C2.18514 12.8034 1.43528 10.9388 1.44 9C1.44 6.99496 2.2365 5.07205 3.65427 3.65427C5.07205 2.2365 6.99496 1.44 9 1.44C11.005 1.44 12.928 2.2365 14.3457 3.65427C15.7635 5.07205 16.56 6.99496 16.56 9C16.5645 10.9361 15.8166 12.7982 14.4742 14.1934ZM9 3.6C8.35919 3.6 7.73277 3.79002 7.19995 4.14604C6.66714 4.50205 6.25186 5.00807 6.00663 5.60011C5.7614 6.19214 5.69724 6.84359 5.82226 7.47209C5.94727 8.10059 6.25585 8.6779 6.70897 9.13103C7.1621 9.58415 7.73941 9.89273 8.36791 10.0177C8.99641 10.1428 9.64786 10.0786 10.2399 9.83337C10.8319 9.58814 11.3379 9.17286 11.694 8.64005C12.05 8.10723 12.24 7.48081 12.24 6.84C12.24 6.41452 12.1562 5.9932 11.9934 5.60011C11.8305 5.20701 11.5919 4.84984 11.291 4.54897C10.9902 4.24811 10.633 4.00946 10.2399 3.84663C9.8468 3.68381 9.42548 3.6 9 3.6Z" fill="black"/>
</svg>
